{"buffers":[{"uri":"desk v6.bin","byteLength":19440}],"asset":{"version":"2.0","generator":"gltfpack 0.16"},"bufferViews":[{"buffer":0,"byteOffset":0,"byteLength":8640,"byteStride":12,"target":34962},{"buffer":0,"byteOffset":8640,"byteLength":8640,"byteStride":12,"target":34962},{"buffer":0,"byteOffset":17280,"byteLength":2160,"target":34963}],"accessors":[{"bufferView":0,"byteOffset":0,"componentType":5126,"count":144,"type":"VEC3","min":[-60,0,-40],"max":[60,73.8000031,40]},{"bufferView":1,"byteOffset":0,"componentType":5126,"count":144,"type":"VEC3"},{"bufferView":2,"byteOffset":0,"componentType":5123,"count":216,"type":"SCALAR"},{"bufferView":0,"byteOffset":1728,"componentType":5126,"count":120,"type":"VEC3","min":[-60,66.8000031,-40],"max":[60,73.8000031,40]},{"bufferView":1,"byteOffset":1728,"componentType":5126,"count":120,"type":"VEC3"},{"bufferView":2,"byteOffset":432,"componentType":5123,"count":180,"type":"SCALAR"},{"bufferView":0,"byteOffset":3168,"componentType":5126,"count":96,"type":"VEC3","min":[-60,66.8000031,-40],"max":[60,73.8000031,40]},{"bufferView":1,"byteOffset":3168,"componentType":5126,"count":96,"type":"VEC3"},{"bufferView":2,"byteOffset":792,"componentType":5123,"count":144,"type":"SCALAR"},{"bufferView":0,"byteOffset":4320,"componentType":5126,"count":24,"type":"VEC3","min":[-61,73.8000031,-41],"max":[61,75,41]},{"bufferView":1,"byteOffset":4320,"componentType":5126,"count":24,"type":"VEC3"},{"bufferView":2,"byteOffset":1080,"componentType":5123,"count":36,"type":"SCALAR"},{"bufferView":0,"byteOffset":4608,"componentType":5126,"count":24,"type":"VEC3","min":[75,0,-19],"max":[78.5,95,-15.5]},{"bufferView":1,"byteOffset":4608,"componentType":5126,"count":24,"type":"VEC3"},{"bufferView":2,"byteOffset":1152,"componentType":5123,"count":36,"type":"SCALAR"},{"bufferView":0,"byteOffset":4896,"componentType":5126,"count":24,"type":"VEC3","min":[36,0,15.5],"max":[39.5,42.7999916,19]},{"bufferView":1,"byteOffset":4896,"componentType":5126,"count":24,"type":"VEC3"},{"bufferView":2,"byteOffset":1224,"componentType":5123,"count":36,"type":"SCALAR"},{"bufferView":0,"byteOffset":5184,"componentType":5126,"count":24,"type":"VEC3","min":[36,0,-19],"max":[39.5,42.7999916,-15.5]},{"bufferView":1,"byteOffset":5184,"componentType":5126,"count":24,"type":"VEC3"},{"bufferView":2,"byteOffset":1296,"componentType":5123,"count":36,"type":"SCALAR"},{"bufferView":0,"byteOffset":5472,"componentType":5126,"count":24,"type":"VEC3","min":[36,39.2999916,-15.5],"max":[39.5,42.7999916,15.5]},{"bufferView":1,"byteOffset":5472,"componentType":5126,"count":24,"type":"VEC3"},{"bufferView":2,"byteOffset":1368,"componentType":5123,"count":36,"type":"SCALAR"},{"bufferView":0,"byteOffset":5760,"componentType":5126,"count":24,"type":"VEC3","min":[73.7999878,73.4758224,-21],"max":[75,83.4758224,21]},{"bufferView":1,"byteOffset":5760,"componentType":5126,"count":24,"type":"VEC3"},{"bufferView":2,"byteOffset":1440,"componentType":5123,"count":36,"type":"SCALAR"},{"bufferView":0,"byteOffset":6048,"componentType":5126,"count":24,"type":"VEC3","min":[73.7999878,85,-21],"max":[75,95,21]},{"bufferView":1,"byteOffset":6048,"componentType":5126,"count":24,"type":"VEC3"},{"bufferView":2,"byteOffset":1512,"componentType":5123,"count":36,"type":"SCALAR"},{"bufferView":0,"byteOffset":6336,"componentType":5126,"count":24,"type":"VEC3","min":[35,42.7999916,-20],"max":[75,44,20]},{"bufferView":1,"byteOffset":6336,"componentType":5126,"count":24,"type":"VEC3"},{"bufferView":2,"byteOffset":1584,"componentType":5123,"count":36,"type":"SCALAR"},{"bufferView":0,"byteOffset":6624,"componentType":5126,"count":24,"type":"VEC3","min":[39.5,39.2999916,-19],"max":[75,42.7999916,-15.5]},{"bufferView":1,"byteOffset":6624,"componentType":5126,"count":24,"type":"VEC3"},{"bufferView":2,"byteOffset":1656,"componentType":5123,"count":36,"type":"SCALAR"},{"bufferView":0,"byteOffset":6912,"componentType":5126,"count":24,"type":"VEC3","min":[75,0,15.5],"max":[78.5,95,19]},{"bufferView":1,"byteOffset":6912,"componentType":5126,"count":24,"type":"VEC3"},{"bufferView":2,"byteOffset":1728,"componentType":5123,"count":36,"type":"SCALAR"},{"bufferView":0,"byteOffset":7200,"componentType":5126,"count":24,"type":"VEC3","min":[75,39.2999916,-15.5],"max":[78.5,42.7999916,15.5]},{"bufferView":1,"byteOffset":7200,"componentType":5126,"count":24,"type":"VEC3"},{"bufferView":2,"byteOffset":1800,"componentType":5123,"count":36,"type":"SCALAR"},{"bufferView":0,"byteOffset":7488,"componentType":5126,"count":24,"type":"VEC3","min":[39.5,39.2999916,15.5],"max":[75,42.7999916,19]},{"bufferView":1,"byteOffset":7488,"componentType":5126,"count":24,"type":"VEC3"},{"bufferView":2,"byteOffset":1872,"componentType":5123,"count":36,"type":"SCALAR"},{"bufferView":0,"byteOffset":7776,"componentType":5126,"count":24,"type":"VEC3","min":[71.5,39.2999916,-15.5],"max":[75,42.7999916,15.5]},{"bufferView":1,"byteOffset":7776,"componentType":5126,"count":24,"type":"VEC3"},{"bufferView":2,"byteOffset":1944,"componentType":5123,"count":36,"type":"SCALAR"},{"bufferView":0,"byteOffset":8064,"componentType":5126,"count":24,"type":"VEC3","min":[39.5,19.2999897,-19],"max":[75,22.7999897,-15.5]},{"bufferView":1,"byteOffset":8064,"componentType":5126,"count":24,"type":"VEC3"},{"bufferView":2,"byteOffset":2016,"componentType":5123,"count":36,"type":"SCALAR"},{"bufferView":0,"byteOffset":8352,"componentType":5126,"count":24,"type":"VEC3","min":[39.5,19.2999897,15.5],"max":[75,22.7999897,19]},{"bufferView":1,"byteOffset":8352,"componentType":5126,"count":24,"type":"VEC3"},{"bufferView":2,"byteOffset":2088,"componentType":5123,"count":36,"type":"SCALAR"}],"materials":[{"pbrMetallicRoughness":{"baseColorFactor":[0.768627465,0.20784314,0.152941182,1],"metallicFactor":0},"doubleSided":true},{"pbrMetallicRoughness":{"baseColorFactor":[0.188235298,0.23137255,0.588235319,1],"metallicFactor":0},"doubleSided":true},{"pbrMetallicRoughness":{"baseColorFactor":[0.909803927,0.678431392,0.137254909,1],"metallicFactor":0},"doubleSided":true},{"pbrMetallicRoughness":{"baseColorFactor":[0.266666681,0.588235319,0.282352954,1],"metallicFactor":0},"doubleSided":true},{"pbrMetallicRoughness":{"baseColorFactor":[0.43921569,0.501960814,0.564705908,1],"metallicFactor":0},"doubleSided":true}],"meshes":[{"primitives":[{"attributes":{"POSITION":0,"NORMAL":1},"mode":4,"indices":2,"material":0}]},{"primitives":[{"attributes":{"POSITION":3,"NORMAL":4},"mode":4,"indices":5,"material":1}]},{"primitives":[{"attributes":{"POSITION":6,"NORMAL":7},"mode":4,"indices":8,"material":2}]},{"primitives":[{"attributes":{"POSITION":9,"NORMAL":10},"mode":4,"indices":11,"material":3}]},{"primitives":[{"attributes":{"POSITION":12,"NORMAL":13},"mode":4,"indices":14,"material":4}]},{"primitives":[{"attributes":{"POSITION":15,"NORMAL":16},"mode":4,"indices":17,"material":4}]},{"primitives":[{"attributes":{"POSITION":18,"NORMAL":19},"mode":4,"indices":20,"material":4}]},{"primitives":[{"attributes":{"POSITION":21,"NORMAL":22},"mode":4,"indices":23,"material":4}]},{"primitives":[{"attributes":{"POSITION":24,"NORMAL":25},"mode":4,"indices":26,"material":4}]},{"primitives":[{"attributes":{"POSITION":27,"NORMAL":28},"mode":4,"indices":29,"material":4}]},{"primitives":[{"attributes":{"POSITION":30,"NORMAL":31},"mode":4,"indices":32,"material":4}]},{"primitives":[{"attributes":{"POSITION":33,"NORMAL":34},"mode":4,"indices":35,"material":4}]},{"primitives":[{"attributes":{"POSITION":36,"NORMAL":37},"mode":4,"indices":38,"material":4}]},{"primitives":[{"attributes":{"POSITION":39,"NORMAL":40},"mode":4,"indices":41,"material":4}]},{"primitives":[{"attributes":{"POSITION":42,"NORMAL":43},"mode":4,"indices":44,"material":4}]},{"primitives":[{"attributes":{"POSITION":45,"NORMAL":46},"mode":4,"indices":47,"material":4}]},{"primitives":[{"attributes":{"POSITION":48,"NORMAL":49},"mode":4,"indices":50,"material":4}]},{"primitives":[{"attributes":{"POSITION":51,"NORMAL":52},"mode":4,"indices":53,"material":4}]}],"nodes":[{"mesh":0},{"mesh":1},{"mesh":2},{"mesh":3},{"mesh":4},{"mesh":5},{"mesh":6},{"mesh":7},{"mesh":8},{"mesh":9},{"mesh":10},{"mesh":11},{"mesh":12},{"mesh":13},{"mesh":14},{"mesh":15},{"mesh":16},{"mesh":17},{"children":[0]},{"children":[1]},{"children":[2]},{"children":[3]},{"name":"讀・ｭ・v6","children":[4]},{"name":"讀・ｭ・v6","children":[5]},{"name":"讀・ｭ・v6","children":[6]},{"name":"讀・ｭ・v6","children":[7]},{"name":"讀・ｭ・v6","children":[8]},{"name":"讀・ｭ・v6","children":[9]},{"name":"讀・ｭ・v6","children":[10]},{"name":"讀・ｭ・v6","children":[11]},{"name":"讀・ｭ・v6","children":[12]},{"name":"讀・ｭ・v6","children":[13]},{"name":"讀・ｭ・v6","children":[14]},{"name":"讀・ｭ・v6","children":[15]},{"name":"讀・ｭ・v6","children":[16]},{"name":"讀・ｭ・v6","children":[17]}],"scenes":[{"nodes":[18,19,20,21,22,23,24,25,26,27,28,29,30,31,32,33,34,35]}]}