{"buffers":[{"uri":"bar v6.bin","byteLength":10416}],"asset":{"version":"2.0","generator":"gltfpack 0.16"},"bufferViews":[{"buffer":0,"byteOffset":0,"byteLength":4320,"byteStride":12,"target":34962},{"buffer":0,"byteOffset":4320,"byteLength":4320,"byteStride":12,"target":34962},{"buffer":0,"byteOffset":8640,"byteLength":1776,"target":34963}],"accessors":[{"bufferView":0,"byteOffset":0,"componentType":5126,"count":240,"type":"VEC3","min":[-30,98.8000031,-30],"max":[30,100,30]},{"bufferView":1,"byteOffset":0,"componentType":5126,"count":240,"type":"VEC3"},{"bufferView":2,"byteOffset":0,"componentType":5123,"count":708,"type":"SCALAR"},{"bufferView":0,"byteOffset":2880,"componentType":5126,"count":96,"type":"VEC3","min":[-26.1000004,0,-26.1000004],"max":[26.1000004,98.8000031,26.1000004]},{"bufferView":1,"byteOffset":2880,"componentType":5126,"count":96,"type":"VEC3"},{"bufferView":2,"byteOffset":1416,"componentType":5123,"count":144,"type":"SCALAR"},{"bufferView":0,"byteOffset":4032,"componentType":5126,"count":24,"type":"VEC3","min":[-1.75,53,-1.75],"max":[1.75,60,1.75]},{"bufferView":1,"byteOffset":4032,"componentType":5126,"count":24,"type":"VEC3"},{"bufferView":2,"byteOffset":1704,"componentType":5123,"count":36,"type":"SCALAR"}],"materials":[{"pbrMetallicRoughness":{"baseColorFactor":[0.0980392173,0.0980392173,0.0980392173,1],"metallicFactor":0},"doubleSided":true},{"pbrMetallicRoughness":{"baseColorFactor":[0.43921569,0.501960814,0.564705908,1],"metallicFactor":0},"doubleSided":true},{"pbrMetallicRoughness":{"baseColorFactor":[0.627451003,0.627451003,0.627451003,1],"metallicFactor":0},"doubleSided":true}],"meshes":[{"primitives":[{"attributes":{"POSITION":0,"NORMAL":1},"mode":4,"indices":2,"material":0}]},{"primitives":[{"attributes":{"POSITION":3,"NORMAL":4},"mode":4,"indices":5,"material":1}]},{"primitives":[{"attributes":{"POSITION":6,"NORMAL":7},"mode":4,"indices":8,"material":2}]}],"nodes":[{"mesh":0},{"mesh":1},{"mesh":2},{"children":[0]},{"children":[1]},{"children":[2]}],"scenes":[{"nodes":[3,4,5]}]}