{"buffers":[{"uri":"chair v7.bin","byteLength":9072}],"asset":{"version":"2.0","generator":"gltfpack 0.16"},"bufferViews":[{"buffer":0,"byteOffset":0,"byteLength":4032,"byteStride":12,"target":34962},{"buffer":0,"byteOffset":4032,"byteLength":4032,"byteStride":12,"target":34962},{"buffer":0,"byteOffset":8064,"byteLength":1008,"target":34963}],"accessors":[{"bufferView":0,"byteOffset":0,"componentType":5126,"count":96,"type":"VEC3","min":[-19,0,-19],"max":[23.5,95,19]},{"bufferView":1,"byteOffset":0,"componentType":5126,"count":96,"type":"VEC3"},{"bufferView":2,"byteOffset":0,"componentType":5123,"count":144,"type":"SCALAR"},{"bufferView":0,"byteOffset":1152,"componentType":5126,"count":48,"type":"VEC3","min":[-19,39.2999916,-15.5],"max":[23.5,42.7999916,15.5]},{"bufferView":1,"byteOffset":1152,"componentType":5126,"count":48,"type":"VEC3"},{"bufferView":2,"byteOffset":288,"componentType":5123,"count":72,"type":"SCALAR"},{"bufferView":0,"byteOffset":1728,"componentType":5126,"count":72,"type":"VEC3","min":[-20,42.7999916,-21],"max":[20,95,21]},{"bufferView":1,"byteOffset":1728,"componentType":5126,"count":72,"type":"VEC3"},{"bufferView":2,"byteOffset":432,"componentType":5123,"count":108,"type":"SCALAR"},{"bufferView":0,"byteOffset":2592,"componentType":5126,"count":96,"type":"VEC3","min":[-15.5,19.2999897,-19],"max":[20,42.7999916,19]},{"bufferView":1,"byteOffset":2592,"componentType":5126,"count":96,"type":"VEC3"},{"bufferView":2,"byteOffset":648,"componentType":5123,"count":144,"type":"SCALAR"},{"bufferView":0,"byteOffset":3744,"componentType":5126,"count":24,"type":"VEC3","min":[16.5,39.2999916,-15.5],"max":[20,42.7999916,15.5]},{"bufferView":1,"byteOffset":3744,"componentType":5126,"count":24,"type":"VEC3"},{"bufferView":2,"byteOffset":936,"componentType":5123,"count":36,"type":"SCALAR"}],"materials":[{"pbrMetallicRoughness":{"baseColorFactor":[0.188235298,0.23137255,0.588235319,1],"metallicFactor":0},"doubleSided":true},{"pbrMetallicRoughness":{"baseColorFactor":[0.266666681,0.588235319,0.282352954,1],"metallicFactor":0},"doubleSided":true},{"pbrMetallicRoughness":{"baseColorFactor":[0.43921569,0.501960814,0.564705908,1],"metallicFactor":0},"doubleSided":true},{"pbrMetallicRoughness":{"baseColorFactor":[0.768627465,0.20784314,0.152941182,1],"metallicFactor":0},"doubleSided":true},{"pbrMetallicRoughness":{"baseColorFactor":[0.909803927,0.678431392,0.137254909,1],"metallicFactor":0},"doubleSided":true}],"meshes":[{"primitives":[{"attributes":{"POSITION":0,"NORMAL":1},"mode":4,"indices":2,"material":0}]},{"primitives":[{"attributes":{"POSITION":3,"NORMAL":4},"mode":4,"indices":5,"material":1}]},{"primitives":[{"attributes":{"POSITION":6,"NORMAL":7},"mode":4,"indices":8,"material":2}]},{"primitives":[{"attributes":{"POSITION":9,"NORMAL":10},"mode":4,"indices":11,"material":3}]},{"primitives":[{"attributes":{"POSITION":12,"NORMAL":13},"mode":4,"indices":14,"material":4}]}],"nodes":[{"mesh":0},{"mesh":1},{"mesh":2},{"mesh":3},{"mesh":4},{"children":[0]},{"children":[1]},{"children":[2]},{"children":[3]},{"children":[4]}],"scenes":[{"nodes":[5,6,7,8,9]}]}