{"buffers":[{"uri":"shelf v11.bin","byteLength":18288}],"asset":{"version":"2.0","generator":"gltfpack 0.16"},"bufferViews":[{"buffer":0,"byteOffset":0,"byteLength":8100,"byteStride":12,"target":34962},{"buffer":0,"byteOffset":8100,"byteLength":8100,"byteStride":12,"target":34962},{"buffer":0,"byteOffset":16200,"byteLength":2088,"target":34963}],"accessors":[{"bufferView":0,"byteOffset":0,"componentType":5126,"count":675,"type":"VEC3","min":[-50,-10,-60],"max":[250,150,50]},{"bufferView":1,"byteOffset":0,"componentType":5126,"count":675,"type":"VEC3"},{"bufferView":2,"byteOffset":0,"componentType":5123,"count":1044,"type":"SCALAR"}],"materials":[{"pbrMetallicRoughness":{"baseColorFactor":[0.43921569,0.501960814,0.564705908,1],"metallicFactor":0},"doubleSided":true}],"meshes":[{"primitives":[{"attributes":{"POSITION":0,"NORMAL":1},"mode":4,"indices":2,"material":0}]}],"nodes":[{"mesh":0},{"children":[0]}],"scenes":[{"nodes":[1]}]}